<svg width="999" height="70" viewBox="0 0 999 70" fill="none" xmlns="http://www.w3.org/2000/svg">
<g opacity="0.65">
<path d="M1.01562 65.1831H9.15163V63.5631H3.44563L6.66763 60.3591C7.90963 59.1171 8.91763 57.7671 8.91763 56.2011C8.91763 53.7171 6.95563 52.3491 4.99362 52.3491C3.35563 52.3491 1.82562 53.1591 1.01562 54.8331L2.41963 55.6611C2.95963 54.5271 3.85962 53.9691 5.01163 53.9691C6.18163 53.9691 7.24363 54.7431 7.24363 56.2191C7.24363 57.2811 6.45163 58.2891 5.46163 59.2791L1.01562 63.8151V65.1831Z" fill="#69727A"/>
<path d="M15.354 65.4171C18.486 65.4171 20.214 62.7711 20.214 58.8831C20.214 54.9951 18.486 52.3491 15.354 52.3491C12.24 52.3491 10.494 54.9951 10.494 58.8831C10.494 62.7711 12.24 65.4171 15.354 65.4171ZM15.354 63.7791C13.32 63.7791 12.168 62.0151 12.168 58.8831C12.168 55.7511 13.32 53.9691 15.354 53.9691C17.388 53.9691 18.558 55.7511 18.558 58.8831C18.558 62.0151 17.388 63.7791 15.354 63.7791Z" fill="#69727A"/>
<path d="M26.6919 65.4171C29.8239 65.4171 31.5519 62.7711 31.5519 58.8831C31.5519 54.9951 29.8239 52.3491 26.6919 52.3491C23.5779 52.3491 21.8319 54.9951 21.8319 58.8831C21.8319 62.7711 23.5779 65.4171 26.6919 65.4171ZM26.6919 63.7791C24.6579 63.7791 23.5059 62.0151 23.5059 58.8831C23.5059 55.7511 24.6579 53.9691 26.6919 53.9691C28.7259 53.9691 29.8959 55.7511 29.8959 58.8831C29.8959 62.0151 28.7259 63.7791 26.6919 63.7791Z" fill="#69727A"/>
<path d="M41.1438 58.1271H38.0118V55.0131H36.5178V58.1271H33.4038V59.6211H36.5178V62.7531H38.0118V59.6211H41.1438V58.1271Z" fill="#69727A"/>
<path d="M55.2724 54.1671V52.5831H48.0184V65.1831H49.6924V59.8371H55.0384V58.2531H49.6924V54.1671H55.2724Z" fill="#69727A"/>
<path d="M57.9297 54.5451C58.5057 54.5451 58.9737 54.0771 58.9737 53.5011C58.9737 52.9251 58.5057 52.4391 57.9297 52.4391C57.3357 52.4391 56.8677 52.9251 56.8677 53.5011C56.8677 54.0771 57.3357 54.5451 57.9297 54.5451ZM57.1377 65.1831H58.7037V56.1831H57.1377V65.1831Z" fill="#69727A"/>
<path d="M67.3927 56.1831L64.5667 63.5091L61.7407 56.1831H60.0487L63.6487 65.1831H65.4847L69.0847 56.1831H67.3927Z" fill="#69727A"/>
<path d="M71.1556 61.4031H78.6976C78.7336 61.1691 78.7516 60.9351 78.7516 60.7011C78.7516 58.1811 76.9876 55.9491 74.2696 55.9491C71.4616 55.9491 69.5536 58.0191 69.5536 60.6831C69.5536 63.3831 71.4796 65.4171 74.3776 65.4171C76.1776 65.4171 77.5456 64.6071 78.3376 63.3831L77.0056 62.6271C76.5556 63.3651 75.6556 63.9411 74.4136 63.9411C72.7396 63.9411 71.4616 63.0231 71.1556 61.4031ZM74.2696 57.4251C75.6196 57.4251 76.8976 58.2531 77.1676 60.0351H71.1556C71.4076 58.4691 72.5776 57.4251 74.2696 57.4251Z" fill="#69727A"/>
<path d="M89.2817 65.4171C91.8557 65.4171 93.6377 64.0131 93.6377 61.7991C93.6377 59.3691 91.5677 58.7211 89.3717 58.0011C87.6077 57.4431 86.7257 57.0111 86.7257 55.8411C86.7257 54.6891 87.6617 53.9691 89.0117 53.9691C90.5417 53.9691 91.4237 54.8331 91.8737 55.9131L93.2777 55.1031C92.5757 53.5191 91.0817 52.3491 89.0117 52.3491C86.9057 52.3491 85.0517 53.6451 85.0517 55.9131C85.0517 58.2531 86.9957 58.8831 89.0117 59.5311C90.8657 60.1071 91.9817 60.5391 91.9817 61.8351C91.9817 62.9691 91.0997 63.7791 89.3177 63.7791C87.4817 63.7791 86.4017 62.8791 85.9517 61.4931L84.5117 62.3211C85.1777 64.2111 86.8877 65.4171 89.2817 65.4171Z" fill="#69727A"/>
<path d="M100.09 57.6951V56.1831H97.6963V53.6631L96.1303 54.1311V56.1831H94.3483V57.6951H96.1303V62.5731C96.1303 64.8231 97.3903 65.5431 100.09 65.1831V63.7791C98.4883 63.8511 97.6963 63.9411 97.6963 62.5731V57.6951H100.09Z" fill="#69727A"/>
<path d="M108.939 56.1831V57.7311C108.219 56.6331 107.067 55.9491 105.537 55.9491C103.035 55.9491 100.983 58.0191 100.983 60.6831C100.983 63.3471 103.035 65.4171 105.537 65.4171C107.067 65.4171 108.219 64.7331 108.939 63.6351V65.1831H110.505V56.1831H108.939ZM105.735 63.9051C103.935 63.9051 102.549 62.5191 102.549 60.6831C102.549 58.8471 103.935 57.4611 105.735 57.4611C107.553 57.4611 108.939 58.8471 108.939 60.6831C108.939 62.5191 107.553 63.9051 105.735 63.9051Z" fill="#69727A"/>
<path d="M114.444 57.6951V56.1831H112.878V65.1831H114.444V60.4131C114.444 58.2891 115.902 57.6051 117.252 57.6591V56.0211C116.118 56.0211 115.02 56.4351 114.444 57.6951Z" fill="#69727A"/>
<path d="M130.916 65.1831H132.77L129.8 60.1431C131.312 59.6031 132.41 58.1451 132.41 56.4891C132.41 54.3291 130.646 52.5831 128.486 52.5831H123.446V65.1831H125.12V60.3591H128.09L130.916 65.1831ZM125.12 54.1491H128.486C129.728 54.1491 130.736 55.1931 130.736 56.4891C130.736 57.7851 129.728 58.8471 128.486 58.8471H125.12V54.1491Z" fill="#69727A"/>
<path d="M134.929 61.4031H142.471C142.507 61.1691 142.525 60.9351 142.525 60.7011C142.525 58.1811 140.761 55.9491 138.043 55.9491C135.235 55.9491 133.327 58.0191 133.327 60.6831C133.327 63.3831 135.253 65.4171 138.151 65.4171C139.951 65.4171 141.319 64.6071 142.111 63.3831L140.779 62.6271C140.329 63.3651 139.429 63.9411 138.187 63.9411C136.513 63.9411 135.235 63.0231 134.929 61.4031ZM138.043 57.4251C139.393 57.4251 140.671 58.2531 140.941 60.0351H134.929C135.181 58.4691 136.351 57.4251 138.043 57.4251Z" fill="#69727A"/>
<path d="M150.274 56.1831L147.448 63.5091L144.622 56.1831H142.93L146.53 65.1831H148.366L151.966 56.1831H150.274Z" fill="#69727A"/>
<path d="M154.082 54.5451C154.658 54.5451 155.126 54.0771 155.126 53.5011C155.126 52.9251 154.658 52.4391 154.082 52.4391C153.488 52.4391 153.02 52.9251 153.02 53.5011C153.02 54.0771 153.488 54.5451 154.082 54.5451ZM153.29 65.1831H154.856V56.1831H153.29V65.1831Z" fill="#69727A"/>
<path d="M158.343 61.4031H165.885C165.921 61.1691 165.939 60.9351 165.939 60.7011C165.939 58.1811 164.175 55.9491 161.457 55.9491C158.649 55.9491 156.741 58.0191 156.741 60.6831C156.741 63.3831 158.667 65.4171 161.565 65.4171C163.365 65.4171 164.733 64.6071 165.525 63.3831L164.193 62.6271C163.743 63.3651 162.843 63.9411 161.601 63.9411C159.927 63.9411 158.649 63.0231 158.343 61.4031ZM161.457 57.4251C162.807 57.4251 164.085 58.2531 164.355 60.0351H158.343C158.595 58.4691 159.765 57.4251 161.457 57.4251Z" fill="#69727A"/>
<path d="M177.99 56.1831L176.01 63.0411L173.886 56.1831H172.374L170.25 63.0231L168.27 56.1831H166.632L169.422 65.1831H171.024L173.13 58.5231L175.236 65.1831H176.838L179.628 56.1831H177.99Z" fill="#69727A"/>
<path d="M182.027 58.6131C182.027 57.8031 182.819 57.4071 183.629 57.4071C184.421 57.4071 185.213 57.7491 185.555 58.5591L186.869 57.8211C186.293 56.6511 185.105 55.9491 183.629 55.9491C181.811 55.9491 180.443 57.0471 180.443 58.6311C180.443 61.8891 185.483 60.7911 185.483 62.7171C185.483 63.5991 184.655 63.9411 183.701 63.9411C182.585 63.9411 181.757 63.4011 181.469 62.5371L180.119 63.3111C180.641 64.5531 181.901 65.4171 183.701 65.4171C185.627 65.4171 187.067 64.3911 187.067 62.7171C187.067 59.4051 182.027 60.5391 182.027 58.6131Z" fill="#69727A"/>
</g>
<g opacity="0.65">
<path d="M263.547 52.2594L260.235 53.4114L260.649 54.8514L263.331 54.0594V64.8594H264.987V52.2594H263.547Z" fill="#69727A"/>
<path d="M272.069 65.0934C275.201 65.0934 276.929 62.4474 276.929 58.5594C276.929 54.6714 275.201 52.0254 272.069 52.0254C268.955 52.0254 267.209 54.6714 267.209 58.5594C267.209 62.4474 268.955 65.0934 272.069 65.0934ZM272.069 63.4554C270.035 63.4554 268.883 61.6914 268.883 58.5594C268.883 55.4274 270.035 53.6454 272.069 53.6454C274.103 53.6454 275.273 55.4274 275.273 58.5594C275.273 61.6914 274.103 63.4554 272.069 63.4554Z" fill="#69727A"/>
<path d="M283.407 65.0934C286.539 65.0934 288.267 62.4474 288.267 58.5594C288.267 54.6714 286.539 52.0254 283.407 52.0254C280.293 52.0254 278.547 54.6714 278.547 58.5594C278.547 62.4474 280.293 65.0934 283.407 65.0934ZM283.407 63.4554C281.373 63.4554 280.221 61.6914 280.221 58.5594C280.221 55.4274 281.373 53.6454 283.407 53.6454C285.441 53.6454 286.611 55.4274 286.611 58.5594C286.611 61.6914 285.441 63.4554 283.407 63.4554Z" fill="#69727A"/>
<path d="M297.859 57.8034H294.727V54.6894H293.233V57.8034H290.119V59.2974H293.233V62.4294H294.727V59.2974H297.859V57.8034Z" fill="#69727A"/>
<path d="M309.306 65.0934C312.06 65.0934 314.022 63.3654 314.022 60.6294V52.2594H312.366V60.5574C312.366 62.3034 311.322 63.4554 309.306 63.4554C307.29 63.4554 306.246 62.3034 306.246 60.5574V52.2594H304.572V60.6294C304.572 63.3654 306.552 65.0934 309.306 65.0934Z" fill="#69727A"/>
<path d="M321.387 55.6254C319.857 55.6254 318.705 56.3094 317.985 57.4074V55.8594H316.419V68.4594H317.985V63.3114C318.705 64.4094 319.857 65.0934 321.387 65.0934C323.889 65.0934 325.941 63.0234 325.941 60.3594C325.941 57.6954 323.889 55.6254 321.387 55.6254ZM321.189 63.5814C319.371 63.5814 317.985 62.1954 317.985 60.3594C317.985 58.5234 319.371 57.1374 321.189 57.1374C322.989 57.1374 324.375 58.5234 324.375 60.3594C324.375 62.1954 322.989 63.5814 321.189 63.5814Z" fill="#69727A"/>
<path d="M333.758 55.8594L330.932 63.1854L328.106 55.8594H326.414L330.014 64.8594H331.85L335.45 55.8594H333.758Z" fill="#69727A"/>
<path d="M340.653 65.0934C343.281 65.0934 345.405 63.0234 345.405 60.3594C345.405 57.6954 343.281 55.6254 340.653 55.6254C338.025 55.6254 335.919 57.6954 335.919 60.3594C335.919 63.0234 338.025 65.0934 340.653 65.0934ZM340.653 63.5634C338.871 63.5634 337.485 62.1774 337.485 60.3594C337.485 58.5414 338.871 57.1554 340.653 57.1554C342.453 57.1554 343.839 58.5414 343.839 60.3594C343.839 62.1774 342.453 63.5634 340.653 63.5634Z" fill="#69727A"/>
<path d="M351.954 57.3714V55.8594H349.56V53.3394L347.994 53.8074V55.8594H346.212V57.3714H347.994V62.2494C347.994 64.4994 349.254 65.2194 351.954 64.8594V63.4554C350.352 63.5274 349.56 63.6174 349.56 62.2494V57.3714H351.954Z" fill="#69727A"/>
<path d="M354.449 61.0794H361.991C362.027 60.8454 362.045 60.6114 362.045 60.3774C362.045 57.8574 360.281 55.6254 357.563 55.6254C354.755 55.6254 352.847 57.6954 352.847 60.3594C352.847 63.0594 354.773 65.0934 357.671 65.0934C359.471 65.0934 360.839 64.2834 361.631 63.0594L360.299 62.3034C359.849 63.0414 358.949 63.6174 357.707 63.6174C356.033 63.6174 354.755 62.6994 354.449 61.0794ZM357.563 57.1014C358.913 57.1014 360.191 57.9294 360.461 59.7114H354.449C354.701 58.1454 355.871 57.1014 357.563 57.1014Z" fill="#69727A"/>
<path d="M364.844 58.2894C364.844 57.4794 365.636 57.0834 366.446 57.0834C367.238 57.0834 368.03 57.4254 368.372 58.2354L369.686 57.4974C369.11 56.3274 367.922 55.6254 366.446 55.6254C364.628 55.6254 363.26 56.7234 363.26 58.3074C363.26 61.5654 368.3 60.4674 368.3 62.3934C368.3 63.2754 367.472 63.6174 366.518 63.6174C365.402 63.6174 364.574 63.0774 364.286 62.2134L362.936 62.9874C363.458 64.2294 364.718 65.0934 366.518 65.0934C368.444 65.0934 369.884 64.0674 369.884 62.3934C369.884 59.0814 364.844 60.2154 364.844 58.2894Z" fill="#69727A"/>
<path d="M380.468 65.0934C383.096 65.0934 385.22 63.0234 385.22 60.3594C385.22 57.6954 383.096 55.6254 380.468 55.6254C377.84 55.6254 375.734 57.6954 375.734 60.3594C375.734 63.0234 377.84 65.0934 380.468 65.0934ZM380.468 63.5634C378.686 63.5634 377.3 62.1774 377.3 60.3594C377.3 58.5414 378.686 57.1554 380.468 57.1554C382.268 57.1554 383.654 58.5414 383.654 60.3594C383.654 62.1774 382.268 63.5634 380.468 63.5634Z" fill="#69727A"/>
<path d="M391.548 55.6254C390.288 55.6254 389.298 56.0934 388.632 57.1554V55.8594H387.066V64.8594H388.632V60.0894C388.632 57.9654 389.802 57.1194 391.242 57.1194C392.628 57.1194 393.474 57.9474 393.474 59.4234V64.8594H395.04V59.3334C395.04 57.0294 393.654 55.6254 391.548 55.6254Z" fill="#69727A"/>
<path d="M406.46 52.2594H401.888V64.8594H403.562V60.3594H406.46C408.782 60.3594 410.528 58.5954 410.528 56.3094C410.528 54.0054 408.782 52.2594 406.46 52.2594ZM406.46 58.7934H403.562V53.8254H406.46C407.846 53.8254 408.872 54.8694 408.872 56.3094C408.872 57.7314 407.846 58.7934 406.46 58.7934Z" fill="#69727A"/>
<path d="M420.299 52.2594V57.6054H414.179V52.2594H412.505V64.8594H414.179V59.1894H420.299V64.8594H421.955V52.2594H420.299Z" fill="#69727A"/>
</g>
<g opacity="0.65">
<path d="M513.715 65.1832H515.497L510.799 52.5832H508.909L504.211 65.1832H505.993L507.019 62.3572H512.689L513.715 65.1832ZM507.595 60.7912L509.845 54.5812L512.113 60.7912H507.595Z" fill="#69727A"/>
<path d="M522.77 56.1832L519.944 63.5092L517.118 56.1832H515.426L519.026 65.1832H520.862L524.462 56.1832H522.77Z" fill="#69727A"/>
<path d="M526.533 61.4032H534.075C534.111 61.1692 534.129 60.9352 534.129 60.7012C534.129 58.1812 532.365 55.9492 529.647 55.9492C526.839 55.9492 524.931 58.0192 524.931 60.6832C524.931 63.3832 526.857 65.4172 529.755 65.4172C531.555 65.4172 532.923 64.6072 533.715 63.3832L532.383 62.6272C531.933 63.3652 531.033 63.9412 529.791 63.9412C528.117 63.9412 526.839 63.0232 526.533 61.4032ZM529.647 57.4252C530.997 57.4252 532.275 58.2532 532.545 60.0352H526.533C526.785 58.4692 527.955 57.4252 529.647 57.4252Z" fill="#69727A"/>
<path d="M537.495 57.6952V56.1832H535.929V65.1832H537.495V60.4132C537.495 58.2892 538.953 57.6052 540.303 57.6592V56.0212C539.169 56.0212 538.071 56.4352 537.495 57.6952Z" fill="#69727A"/>
<path d="M548.795 56.1832V57.7312C548.075 56.6332 546.923 55.9492 545.393 55.9492C542.891 55.9492 540.839 58.0192 540.839 60.6832C540.839 63.3472 542.891 65.4172 545.393 65.4172C546.923 65.4172 548.075 64.7332 548.795 63.6352V65.1832H550.361V56.1832H548.795ZM545.591 63.9052C543.791 63.9052 542.405 62.5192 542.405 60.6832C542.405 58.8472 543.791 57.4612 545.591 57.4612C547.409 57.4612 548.795 58.8472 548.795 60.6832C548.795 62.5192 547.409 63.9052 545.591 63.9052Z" fill="#69727A"/>
<path d="M560.203 56.1832V57.7312C559.483 56.6332 558.331 55.9492 556.819 55.9492C554.263 55.9492 552.229 58.0192 552.229 60.6292C552.229 63.2572 554.263 65.3272 556.819 65.3272C558.331 65.3272 559.483 64.6252 560.203 63.5272V64.8052C560.203 66.4972 559.069 67.5592 557.197 67.5592C555.433 67.5592 554.677 66.8932 554.263 66.0472L552.895 66.8212C553.633 68.2432 555.145 69.0172 557.161 69.0172C559.501 69.0172 561.751 67.6132 561.751 64.8052V56.1832H560.203ZM556.999 63.8332C555.181 63.8332 553.795 62.4472 553.795 60.6292C553.795 58.8292 555.181 57.4432 556.999 57.4432C558.817 57.4432 560.203 58.8292 560.203 60.6292C560.203 62.4472 558.817 63.8332 556.999 63.8332Z" fill="#69727A"/>
<path d="M565.222 61.4032H572.764C572.8 61.1692 572.818 60.9352 572.818 60.7012C572.818 58.1812 571.054 55.9492 568.336 55.9492C565.528 55.9492 563.62 58.0192 563.62 60.6832C563.62 63.3832 565.546 65.4172 568.444 65.4172C570.244 65.4172 571.612 64.6072 572.404 63.3832L571.072 62.6272C570.622 63.3652 569.722 63.9412 568.48 63.9412C566.806 63.9412 565.528 63.0232 565.222 61.4032ZM568.336 57.4252C569.686 57.4252 570.964 58.2532 571.234 60.0352H565.222C565.474 58.4692 566.644 57.4252 568.336 57.4252Z" fill="#69727A"/>
<path d="M586.75 65.1832H588.604L585.634 60.1432C587.146 59.6032 588.244 58.1452 588.244 56.4892C588.244 54.3292 586.48 52.5832 584.32 52.5832H579.28V65.1832H580.954V60.3592H583.924L586.75 65.1832ZM580.954 54.1492H584.32C585.562 54.1492 586.57 55.1932 586.57 56.4892C586.57 57.7852 585.562 58.8472 584.32 58.8472H580.954V54.1492Z" fill="#69727A"/>
<path d="M597.117 56.1832V57.7312C596.397 56.6332 595.245 55.9492 593.715 55.9492C591.213 55.9492 589.161 58.0192 589.161 60.6832C589.161 63.3472 591.213 65.4172 593.715 65.4172C595.245 65.4172 596.397 64.7332 597.117 63.6352V65.1832H598.683V56.1832H597.117ZM593.913 63.9052C592.113 63.9052 590.727 62.5192 590.727 60.6832C590.727 58.8472 592.113 57.4612 593.913 57.4612C595.731 57.4612 597.117 58.8472 597.117 60.6832C597.117 62.5192 595.731 63.9052 593.913 63.9052Z" fill="#69727A"/>
<path d="M605.952 57.6952V56.1832H603.558V53.6632L601.992 54.1312V56.1832H600.21V57.6952H601.992V62.5732C601.992 64.8232 603.252 65.5432 605.952 65.1832V63.7792C604.35 63.8512 603.558 63.9412 603.558 62.5732V57.6952H605.952Z" fill="#69727A"/>
<path d="M608.598 54.5452C609.174 54.5452 609.642 54.0772 609.642 53.5012C609.642 52.9252 609.174 52.4392 608.598 52.4392C608.004 52.4392 607.536 52.9252 607.536 53.5012C607.536 54.0772 608.004 54.5452 608.598 54.5452ZM607.806 65.1832H609.372V56.1832H607.806V65.1832Z" fill="#69727A"/>
<path d="M616.243 55.9492C614.983 55.9492 613.993 56.4172 613.327 57.4792V56.1832H611.761V65.1832H613.327V60.4132C613.327 58.2892 614.497 57.4432 615.937 57.4432C617.323 57.4432 618.169 58.2712 618.169 59.7472V65.1832H619.735V59.6572C619.735 57.3532 618.349 55.9492 616.243 55.9492Z" fill="#69727A"/>
<path d="M629.391 56.1832V57.7312C628.671 56.6332 627.519 55.9492 626.007 55.9492C623.451 55.9492 621.417 58.0192 621.417 60.6292C621.417 63.2572 623.451 65.3272 626.007 65.3272C627.519 65.3272 628.671 64.6252 629.391 63.5272V64.8052C629.391 66.4972 628.257 67.5592 626.385 67.5592C624.621 67.5592 623.865 66.8932 623.451 66.0472L622.083 66.8212C622.821 68.2432 624.333 69.0172 626.349 69.0172C628.689 69.0172 630.939 67.6132 630.939 64.8052V56.1832H629.391ZM626.187 63.8332C624.369 63.8332 622.983 62.4472 622.983 60.6292C622.983 58.8292 624.369 57.4432 626.187 57.4432C628.005 57.4432 629.391 58.8292 629.391 60.6292C629.391 62.4472 628.005 63.8332 626.187 63.8332Z" fill="#69727A"/>
<path d="M642.042 65.4172C644.67 65.4172 646.794 63.3472 646.794 60.6832C646.794 58.0192 644.67 55.9492 642.042 55.9492C639.414 55.9492 637.308 58.0192 637.308 60.6832C637.308 63.3472 639.414 65.4172 642.042 65.4172ZM642.042 63.8872C640.26 63.8872 638.874 62.5012 638.874 60.6832C638.874 58.8652 640.26 57.4792 642.042 57.4792C643.842 57.4792 645.228 58.8652 645.228 60.6832C645.228 62.5012 643.842 63.8872 642.042 63.8872Z" fill="#69727A"/>
<path d="M652.932 53.8612V52.3492C650.358 52.1692 648.99 53.5192 648.99 55.9132V56.1832H647.55V57.6952H648.99V65.1832H650.556V57.6952H652.932V56.1832H650.556V55.9132C650.556 54.3472 651.366 53.7352 652.932 53.8612Z" fill="#69727A"/>
<path d="M667.624 60.7372H666.274V57.7492H663.772V60.7372H660.496L664.672 52.5832H662.008L657.814 60.7372V63.0412H663.772V65.1832H666.274V63.0412H667.624V60.7372Z" fill="#69727A"/>
<path d="M670.289 65.4172C671.135 65.4172 671.819 64.7332 671.819 63.8872C671.819 63.0412 671.135 62.3572 670.289 62.3572C669.443 62.3572 668.759 63.0412 668.759 63.8872C668.759 64.7332 669.443 65.4172 670.289 65.4172Z" fill="#69727A"/>
<path d="M680.968 56.7052C680.968 54.1312 679.114 52.3312 676.396 52.3312C673.714 52.3312 671.842 54.1312 671.842 56.7052C671.842 59.2432 673.66 61.0252 676.27 61.0792L673.462 65.1832H676.306L680.23 59.2612H680.212C680.698 58.5592 680.968 57.6772 680.968 56.7052ZM674.308 56.7052C674.308 55.4452 675.244 54.6712 676.396 54.6712C677.584 54.6712 678.502 55.4272 678.502 56.7052C678.502 57.9832 677.584 58.7572 676.396 58.7572C675.244 58.7572 674.308 57.9832 674.308 56.7052Z" fill="#69727A"/>
<path d="M687.587 66.9832L694.787 50.7832H693.527L686.327 66.9832H687.587Z" fill="#69727A"/>
<path d="M704.769 57.1732H703.473L703.635 54.9052H708.477V52.5832H701.331L700.827 59.5852H704.643C705.867 59.5852 706.587 60.2872 706.587 61.2952C706.587 62.3212 705.867 63.0052 704.571 63.0052C703.311 63.0052 702.609 62.4652 702.303 61.4932L700.179 62.7352C700.899 64.5712 702.609 65.4352 704.571 65.4352C706.947 65.4352 709.071 63.9952 709.071 61.2952C709.071 58.5952 707.073 57.1732 704.769 57.1732Z" fill="#69727A"/>
</g>
<g opacity="0.65">
<path d="M803.202 65.1832H804.984L800.286 52.5832H798.396L793.698 65.1832H795.48L796.506 62.3572H802.176L803.202 65.1832ZM797.082 60.7912L799.332 54.5812L801.6 60.7912H797.082Z" fill="#69727A"/>
<path d="M812.257 56.1832L809.431 63.5092L806.605 56.1832H804.913L808.513 65.1832H810.349L813.949 56.1832H812.257Z" fill="#69727A"/>
<path d="M816.02 61.4032H823.562C823.598 61.1692 823.616 60.9352 823.616 60.7012C823.616 58.1812 821.852 55.9492 819.134 55.9492C816.326 55.9492 814.418 58.0192 814.418 60.6832C814.418 63.3832 816.344 65.4172 819.242 65.4172C821.042 65.4172 822.41 64.6072 823.202 63.3832L821.87 62.6272C821.42 63.3652 820.52 63.9412 819.278 63.9412C817.604 63.9412 816.326 63.0232 816.02 61.4032ZM819.134 57.4252C820.484 57.4252 821.762 58.2532 822.032 60.0352H816.02C816.272 58.4692 817.442 57.4252 819.134 57.4252Z" fill="#69727A"/>
<path d="M826.982 57.6952V56.1832H825.416V65.1832H826.982V60.4132C826.982 58.2892 828.44 57.6052 829.79 57.6592V56.0212C828.656 56.0212 827.558 56.4352 826.982 57.6952Z" fill="#69727A"/>
<path d="M838.282 56.1832V57.7312C837.562 56.6332 836.41 55.9492 834.88 55.9492C832.378 55.9492 830.326 58.0192 830.326 60.6832C830.326 63.3472 832.378 65.4172 834.88 65.4172C836.41 65.4172 837.562 64.7332 838.282 63.6352V65.1832H839.848V56.1832H838.282ZM835.078 63.9052C833.278 63.9052 831.892 62.5192 831.892 60.6832C831.892 58.8472 833.278 57.4612 835.078 57.4612C836.896 57.4612 838.282 58.8472 838.282 60.6832C838.282 62.5192 836.896 63.9052 835.078 63.9052Z" fill="#69727A"/>
<path d="M849.691 56.1832V57.7312C848.971 56.6332 847.819 55.9492 846.307 55.9492C843.751 55.9492 841.717 58.0192 841.717 60.6292C841.717 63.2572 843.751 65.3272 846.307 65.3272C847.819 65.3272 848.971 64.6252 849.691 63.5272V64.8052C849.691 66.4972 848.557 67.5592 846.685 67.5592C844.921 67.5592 844.165 66.8932 843.751 66.0472L842.383 66.8212C843.121 68.2432 844.633 69.0172 846.649 69.0172C848.989 69.0172 851.239 67.6132 851.239 64.8052V56.1832H849.691ZM846.487 63.8332C844.669 63.8332 843.283 62.4472 843.283 60.6292C843.283 58.8292 844.669 57.4432 846.487 57.4432C848.305 57.4432 849.691 58.8292 849.691 60.6292C849.691 62.4472 848.305 63.8332 846.487 63.8332Z" fill="#69727A"/>
<path d="M854.709 61.4032H862.251C862.287 61.1692 862.305 60.9352 862.305 60.7012C862.305 58.1812 860.541 55.9492 857.823 55.9492C855.015 55.9492 853.107 58.0192 853.107 60.6832C853.107 63.3832 855.033 65.4172 857.931 65.4172C859.731 65.4172 861.099 64.6072 861.891 63.3832L860.559 62.6272C860.109 63.3652 859.209 63.9412 857.967 63.9412C856.293 63.9412 855.015 63.0232 854.709 61.4032ZM857.823 57.4252C859.173 57.4252 860.451 58.2532 860.721 60.0352H854.709C854.961 58.4692 856.131 57.4252 857.823 57.4252Z" fill="#69727A"/>
<path d="M876.238 65.1832H878.092L875.122 60.1432C876.634 59.6032 877.732 58.1452 877.732 56.4892C877.732 54.3292 875.968 52.5832 873.808 52.5832H868.768V65.1832H870.442V60.3592H873.412L876.238 65.1832ZM870.442 54.1492H873.808C875.05 54.1492 876.058 55.1932 876.058 56.4892C876.058 57.7852 875.05 58.8472 873.808 58.8472H870.442V54.1492Z" fill="#69727A"/>
<path d="M886.604 56.1832V57.7312C885.884 56.6332 884.732 55.9492 883.202 55.9492C880.7 55.9492 878.648 58.0192 878.648 60.6832C878.648 63.3472 880.7 65.4172 883.202 65.4172C884.732 65.4172 885.884 64.7332 886.604 63.6352V65.1832H888.17V56.1832H886.604ZM883.4 63.9052C881.6 63.9052 880.214 62.5192 880.214 60.6832C880.214 58.8472 881.6 57.4612 883.4 57.4612C885.218 57.4612 886.604 58.8472 886.604 60.6832C886.604 62.5192 885.218 63.9052 883.4 63.9052Z" fill="#69727A"/>
<path d="M895.439 57.6952V56.1832H893.045V53.6632L891.479 54.1312V56.1832H889.697V57.6952H891.479V62.5732C891.479 64.8232 892.739 65.5432 895.439 65.1832V63.7792C893.837 63.8512 893.045 63.9412 893.045 62.5732V57.6952H895.439Z" fill="#69727A"/>
<path d="M898.085 54.5452C898.661 54.5452 899.129 54.0772 899.129 53.5012C899.129 52.9252 898.661 52.4392 898.085 52.4392C897.491 52.4392 897.023 52.9252 897.023 53.5012C897.023 54.0772 897.491 54.5452 898.085 54.5452ZM897.293 65.1832H898.859V56.1832H897.293V65.1832Z" fill="#69727A"/>
<path d="M905.73 55.9492C904.47 55.9492 903.48 56.4172 902.814 57.4792V56.1832H901.248V65.1832H902.814V60.4132C902.814 58.2892 903.984 57.4432 905.424 57.4432C906.81 57.4432 907.656 58.2712 907.656 59.7472V65.1832H909.222V59.6572C909.222 57.3532 907.836 55.9492 905.73 55.9492Z" fill="#69727A"/>
<path d="M918.878 56.1832V57.7312C918.158 56.6332 917.006 55.9492 915.494 55.9492C912.938 55.9492 910.904 58.0192 910.904 60.6292C910.904 63.2572 912.938 65.3272 915.494 65.3272C917.006 65.3272 918.158 64.6252 918.878 63.5272V64.8052C918.878 66.4972 917.744 67.5592 915.872 67.5592C914.108 67.5592 913.352 66.8932 912.938 66.0472L911.57 66.8212C912.308 68.2432 913.82 69.0172 915.836 69.0172C918.176 69.0172 920.426 67.6132 920.426 64.8052V56.1832H918.878ZM915.674 63.8332C913.856 63.8332 912.47 62.4472 912.47 60.6292C912.47 58.8292 913.856 57.4432 915.674 57.4432C917.492 57.4432 918.878 58.8292 918.878 60.6292C918.878 62.4472 917.492 63.8332 915.674 63.8332Z" fill="#69727A"/>
<path d="M931.529 65.4172C934.157 65.4172 936.281 63.3472 936.281 60.6832C936.281 58.0192 934.157 55.9492 931.529 55.9492C928.901 55.9492 926.795 58.0192 926.795 60.6832C926.795 63.3472 928.901 65.4172 931.529 65.4172ZM931.529 63.8872C929.747 63.8872 928.361 62.5012 928.361 60.6832C928.361 58.8652 929.747 57.4792 931.529 57.4792C933.329 57.4792 934.715 58.8652 934.715 60.6832C934.715 62.5012 933.329 63.8872 931.529 63.8872Z" fill="#69727A"/>
<path d="M942.419 53.8612V52.3492C939.845 52.1692 938.477 53.5192 938.477 55.9132V56.1832H937.037V57.6952H938.477V65.1832H940.043V57.6952H942.419V56.1832H940.043V55.9132C940.043 54.3472 940.853 53.7352 942.419 53.8612Z" fill="#69727A"/>
<path d="M956.463 56.7052C956.463 54.1312 954.609 52.3312 951.891 52.3312C949.209 52.3312 947.337 54.1312 947.337 56.7052C947.337 59.2432 949.155 61.0252 951.765 61.0792L948.957 65.1832H951.801L955.725 59.2612H955.707C956.193 58.5592 956.463 57.6772 956.463 56.7052ZM949.803 56.7052C949.803 55.4452 950.739 54.6712 951.891 54.6712C953.079 54.6712 953.997 55.4272 953.997 56.7052C953.997 57.9832 953.079 58.7572 951.891 58.7572C950.739 58.7572 949.803 57.9832 949.803 56.7052Z" fill="#69727A"/>
<path d="M963.083 66.9832L970.283 50.7832H969.023L961.823 66.9832H963.083Z" fill="#69727A"/>
<path d="M978.734 52.5832L975.422 53.7532L976.034 55.8772L978.41 55.2112V65.1832H980.894V52.5832H978.734Z" fill="#69727A"/>
<path d="M987.855 65.4352C991.077 65.4352 992.895 62.7712 992.895 58.8832C992.895 54.9952 991.077 52.3312 987.855 52.3312C984.651 52.3312 982.815 54.9952 982.815 58.8832C982.815 62.7712 984.651 65.4352 987.855 65.4352ZM987.855 63.0052C986.163 63.0052 985.299 61.5472 985.299 58.8832C985.299 56.2192 986.163 54.7432 987.855 54.7432C989.547 54.7432 990.429 56.2192 990.429 58.8832C990.429 61.5472 989.547 63.0052 987.855 63.0052Z" fill="#69727A"/>
</g>
<path fill-rule="evenodd" clip-rule="evenodd" d="M504.026 12.8311L531.534 6.17714C532.072 6.04689 532.617 6.38017 532.747 6.91786L533.625 10.5463C533.419 10.7214 533.205 10.8955 532.984 11.0686C530.056 13.3552 525.842 15.3998 520.929 16.744L520.769 16.082L518.128 16.721L518.288 17.3827C513.303 18.433 508.621 18.5403 504.972 17.8448C504.696 17.7919 504.426 17.7348 504.163 17.6732L503.285 14.0448C503.155 13.5074 503.488 12.9614 504.026 12.8311ZM533.809 11.3044L536.9 24.0858C537.031 24.6235 536.697 25.1695 536.16 25.2994L508.652 31.9538C508.114 32.0836 507.568 31.7504 507.438 31.213L504.346 18.4313C504.51 18.4668 504.675 18.5006 504.843 18.5326C508.583 19.2455 513.37 19.1372 518.453 18.0646L518.581 18.5953L521.222 17.9563L521.094 17.4259C526.105 16.0566 530.412 13.9647 533.413 11.6209C533.548 11.5161 533.679 11.4106 533.809 11.3044Z" fill="#69727A"/>
<path fill-rule="evenodd" clip-rule="evenodd" d="M511.971 6.37302L521.514 4.06448C522.372 3.85693 523.236 4.01886 523.938 4.44721C524.639 4.8752 525.178 5.56996 525.386 6.42769L525.588 7.26314L524.377 7.55602L524.175 6.72057C524.049 6.1968 523.718 5.77194 523.289 5.51006C522.86 5.24783 522.331 5.14858 521.807 5.27534L512.264 7.58388C511.74 7.71064 511.315 8.04043 511.053 8.46982C510.791 8.89921 510.692 9.4282 510.818 9.95196L511.02 10.7871L509.809 11.0799L509.607 10.2448C509.4 9.38675 509.562 8.5224 509.99 7.82103C510.418 7.11966 511.113 6.58057 511.971 6.37302Z" fill="#69727A"/>
<path fill-rule="evenodd" clip-rule="evenodd" d="M543.725 24.3058C543.725 25.2656 544.483 26.0244 545.443 26.0244C546.403 26.0244 547.162 25.2656 547.162 24.3058V19.842H553.188C554.058 19.842 554.75 19.1503 554.75 18.2797C554.75 17.4094 554.058 16.7175 553.188 16.7175H547.162V13.3921H554.192C555.063 13.3921 555.754 12.7001 555.754 11.8298C555.754 10.9595 555.063 10.2676 554.192 10.2676H545.443C544.483 10.2676 543.725 11.0264 543.725 11.9862V24.3058Z" fill="#69727A"/>
<path fill-rule="evenodd" clip-rule="evenodd" d="M556.558 11.1159C556.558 12.098 557.384 12.7227 558.455 12.7227C559.526 12.7227 560.352 12.098 560.352 11.1159V11.0713C560.352 10.0893 559.526 9.48682 558.455 9.48682C557.384 9.48682 556.558 10.0893 556.558 11.0713V11.1159ZM556.759 24.3284C556.759 25.2659 557.517 26.0248 558.455 26.0248C559.392 26.0248 560.151 25.2659 560.151 24.3284V15.4903C560.151 14.5531 559.392 13.7943 558.455 13.7943C557.517 13.7943 556.759 14.5531 556.759 15.4903V24.3284Z" fill="#69727A"/>
<path fill-rule="evenodd" clip-rule="evenodd" d="M565.977 26.0913C566.713 26.0913 567.293 26.0021 567.918 25.7566C568.387 25.578 568.789 25.0869 568.789 24.4845C568.789 23.7033 568.141 23.0782 567.383 23.0782C567.316 23.0782 567.092 23.1005 566.981 23.1005C566.222 23.1005 565.887 22.7213 565.887 21.9402V16.8293H567.383C568.186 16.8293 568.833 16.1819 568.833 15.3785C568.833 14.5751 568.186 13.9277 567.383 13.9277H565.887V12.4323C565.887 11.4952 565.129 10.7363 564.191 10.7363C563.254 10.7363 562.495 11.4952 562.495 12.4323V13.9277H562.383C561.58 13.9277 560.933 14.5751 560.933 15.3785C560.933 16.1819 561.58 16.8293 562.383 16.8293H562.495V22.4981C562.495 25.2656 563.901 26.0913 565.977 26.0913Z" fill="#69727A"/>
<path fill-rule="evenodd" clip-rule="evenodd" d="M575.707 26.1136C579.078 26.1136 581.443 24.3727 581.443 21.2706V21.226C581.443 18.503 579.658 17.365 576.488 16.5393C573.788 15.8473 573.118 15.5123 573.118 14.4856V14.4411C573.118 13.6822 573.81 13.0798 575.127 13.0798C576.198 13.0798 577.269 13.459 578.408 14.1287C578.676 14.285 578.943 14.3742 579.278 14.3742C580.171 14.3742 580.885 13.6822 580.885 12.7897C580.885 12.12 580.506 11.6512 580.126 11.428C578.72 10.5355 577.069 10.0444 575.172 10.0444C571.98 10.0444 569.704 11.9191 569.704 14.7534V14.7984C569.704 17.9006 571.735 18.7708 574.881 19.5742C577.493 20.2439 578.028 20.6904 578.028 21.5606V21.6052C578.028 22.5204 577.18 23.0783 575.774 23.0783C574.257 23.0783 572.962 22.5427 571.779 21.6724C571.556 21.5161 571.244 21.3597 570.797 21.3597C569.904 21.3597 569.19 22.0517 569.19 22.9446C569.19 23.4802 569.458 23.9712 569.837 24.239C571.578 25.4889 573.654 26.1136 575.707 26.1136Z" fill="#69727A"/>
<path fill-rule="evenodd" clip-rule="evenodd" d="M582.671 24.3282C582.671 25.2657 583.43 26.0246 584.367 26.0246C585.304 26.0246 586.063 25.2657 586.063 24.3282V19.2174C586.063 17.6105 586.844 16.7845 588.116 16.7845C589.389 16.7845 590.103 17.6105 590.103 19.2174V24.3282C590.103 25.2657 590.862 26.0246 591.799 26.0246C592.737 26.0246 593.495 25.2657 593.495 24.3282V19.2174C593.495 17.6105 594.277 16.7845 595.549 16.7845C596.821 16.7845 597.535 17.6105 597.535 19.2174V24.3282C597.535 25.2657 598.294 26.0246 599.231 26.0246C600.169 26.0246 600.927 25.2657 600.927 24.3282V18.1016C600.927 15.2223 599.41 13.7046 596.888 13.7046C595.259 13.7046 594.009 14.3743 592.96 15.6018C592.335 14.3966 591.152 13.7046 589.59 13.7046C587.871 13.7046 586.844 14.6198 586.063 15.6241V15.4901C586.063 14.5529 585.304 13.7941 584.367 13.7941C583.43 13.7941 582.671 14.5529 582.671 15.4901V24.3282Z" fill="#69727A"/>
<path fill-rule="evenodd" clip-rule="evenodd" d="M605.859 26.1145C607.511 26.1145 608.649 25.5121 609.475 24.5969V24.6192C609.475 25.3334 610.122 26.0254 611.104 26.0254C612.02 26.0254 612.756 25.3111 612.756 24.3963V18.9504C612.756 17.3436 612.354 16.0268 611.461 15.1339C610.613 14.286 609.274 13.7949 607.422 13.7949C605.837 13.7949 604.677 14.0181 603.605 14.4197C603.07 14.6206 602.69 15.1339 602.69 15.7364C602.69 16.5175 603.315 17.1203 604.096 17.1203C604.253 17.1203 604.387 17.0981 604.587 17.0308C605.235 16.8303 605.994 16.6962 606.931 16.6962C608.627 16.6962 609.498 17.4773 609.498 18.8835V19.0845C608.649 18.794 607.779 18.5934 606.574 18.5934C603.739 18.5934 601.753 19.7984 601.753 22.4099V22.4545C601.753 24.8201 603.605 26.1145 605.859 26.1145ZM606.886 23.7712C605.793 23.7712 605.034 23.2356 605.034 22.3204V22.2758C605.034 21.2046 605.927 20.6244 607.377 20.6244C608.203 20.6244 608.962 20.8027 609.542 21.0705V21.6733C609.542 22.9009 608.471 23.7712 606.886 23.7712Z" fill="#69727A"/>
<path fill-rule="evenodd" clip-rule="evenodd" d="M614.431 24.3288C614.431 25.2662 615.189 26.0251 616.127 26.0251C617.064 26.0251 617.823 25.2662 617.823 24.3288V11.1608C617.823 10.2237 617.064 9.46484 616.127 9.46484C615.189 9.46484 614.431 10.2237 614.431 11.1608V24.3288Z" fill="#69727A"/>
<path fill-rule="evenodd" clip-rule="evenodd" d="M619.764 24.3288C619.764 25.2662 620.523 26.0251 621.46 26.0251C622.397 26.0251 623.156 25.2662 623.156 24.3288V11.1608C623.156 10.2237 622.397 9.46484 621.46 9.46484C620.523 9.46484 619.764 10.2237 619.764 11.1608V24.3288Z" fill="#69727A"/>
<path fill-rule="evenodd" clip-rule="evenodd" d="M625.3 24.1721C625.3 25.1315 626.059 25.8903 627.018 25.8903H632.732C636.258 25.8903 638.579 24.4622 638.579 21.6051V21.5606C638.579 19.4627 637.463 18.4138 635.656 17.7218C636.771 17.0971 637.709 16.115 637.709 14.3518V14.3073C637.709 13.236 637.352 12.3654 636.637 11.6512C635.745 10.7586 634.339 10.2676 632.553 10.2676H627.018C626.059 10.2676 625.3 11.0264 625.3 11.9862V24.1721ZM628.648 16.5838V13.2806H632.04C633.491 13.2806 634.294 13.8608 634.294 14.8874V14.932C634.294 16.0927 633.334 16.5838 631.817 16.5838H628.648ZM628.648 22.8773V19.4404H632.62C634.384 19.4404 635.165 20.0878 635.165 21.1367V21.1813C635.165 22.3417 634.249 22.8773 632.732 22.8773H628.648Z" fill="#69727A"/>
<path fill-rule="evenodd" clip-rule="evenodd" d="M650.519 15.4909C650.519 14.5538 649.76 13.7949 648.823 13.7949C647.885 13.7949 647.127 14.5538 647.127 15.4909V20.6021C647.127 22.2089 646.301 23.0346 645.006 23.0346C643.712 23.0346 642.953 22.2089 642.953 20.6021V15.4909C642.953 14.5538 642.194 13.7949 641.257 13.7949C640.319 13.7949 639.561 14.5538 639.561 15.4909V21.6733C639.561 24.4186 641.056 26.1145 643.623 26.1145C645.341 26.1145 646.345 25.1997 647.127 24.1953V24.3291C647.127 25.2666 647.885 26.0254 648.823 26.0254C649.76 26.0254 650.519 25.2666 650.519 24.3291V15.4909Z" fill="#69727A"/>
<path fill-rule="evenodd" clip-rule="evenodd" d="M656.344 26.1137C658.933 26.1137 660.92 24.9084 660.92 22.2527V22.2081C660.92 20.0208 658.978 19.2174 657.304 18.6595C656.009 18.213 654.871 17.9006 654.871 17.2309V17.1864C654.871 16.7176 655.295 16.3607 656.121 16.3607C656.835 16.3607 657.75 16.6508 658.71 17.1195C658.933 17.2309 659.089 17.2755 659.335 17.2755C660.094 17.2755 660.696 16.6953 660.696 15.9365C660.696 15.3563 660.384 14.9099 659.893 14.6644C658.732 14.0842 657.438 13.7495 656.188 13.7495C653.777 13.7495 651.814 15.1108 651.814 17.5437V17.5882C651.814 19.9093 653.71 20.6904 655.385 21.1815C656.701 21.583 657.862 21.8285 657.862 22.5651V22.6096C657.862 23.1456 657.415 23.5025 656.433 23.5025C655.474 23.5025 654.336 23.1456 653.197 22.4313C653.019 22.3195 652.773 22.2527 652.527 22.2527C651.769 22.2527 651.188 22.8329 651.188 23.5917C651.188 24.1273 651.479 24.5292 651.836 24.7524C653.286 25.6899 654.871 26.1137 656.344 26.1137Z" fill="#69727A"/>
<path fill-rule="evenodd" clip-rule="evenodd" d="M661.901 11.1159C661.901 12.098 662.727 12.7227 663.798 12.7227C664.869 12.7227 665.696 12.098 665.696 11.1159V11.0713C665.696 10.0893 664.869 9.48682 663.798 9.48682C662.727 9.48682 661.901 10.0893 661.901 11.0713V11.1159ZM662.102 24.3284C662.102 25.2659 662.861 26.0248 663.798 26.0248C664.736 26.0248 665.495 25.2659 665.495 24.3284V15.4903C665.495 14.5531 664.736 13.7943 663.798 13.7943C662.861 13.7943 662.102 14.5531 662.102 15.4903V24.3284Z" fill="#69727A"/>
<path fill-rule="evenodd" clip-rule="evenodd" d="M667.281 24.3282C667.281 25.2657 668.04 26.0246 668.978 26.0246C669.915 26.0246 670.674 25.2657 670.674 24.3282V19.2174C670.674 17.6105 671.5 16.7845 672.794 16.7845C674.088 16.7845 674.847 17.6105 674.847 19.2174V24.3282C674.847 25.2657 675.606 26.0246 676.544 26.0246C677.481 26.0246 678.24 25.2657 678.24 24.3282V18.1461C678.24 15.4009 676.744 13.7046 674.178 13.7046C672.459 13.7046 671.455 14.6198 670.674 15.6241V15.4901C670.674 14.5529 669.915 13.7941 668.978 13.7941C668.04 13.7941 667.281 14.5529 667.281 15.4901V24.3282Z" fill="#69727A"/>
<path fill-rule="evenodd" clip-rule="evenodd" d="M682.525 18.9718C682.792 17.4319 683.708 16.4275 685.114 16.4275C686.542 16.4275 687.435 17.4542 687.636 18.9718H682.525ZM689.6 24.7078C689.845 24.4846 690.046 24.1496 690.046 23.7035C690.046 22.9447 689.488 22.3641 688.729 22.3641C688.372 22.3641 688.149 22.4536 687.904 22.6323C687.212 23.1456 686.431 23.4357 685.493 23.4357C683.975 23.4357 682.904 22.6323 682.569 21.092H689.287C690.18 21.092 690.872 20.4449 690.872 19.4629C690.872 16.9854 689.109 13.7046 685.114 13.7046C681.632 13.7046 679.199 16.5167 679.199 19.9316V19.9762C679.199 23.6366 681.855 26.1583 685.449 26.1583C687.189 26.1583 688.551 25.6004 689.6 24.7078Z" fill="#69727A"/>
<path fill-rule="evenodd" clip-rule="evenodd" d="M696.251 26.1137C698.839 26.1137 700.826 24.9084 700.826 22.2527V22.2081C700.826 20.0208 698.884 19.2174 697.21 18.6595C695.916 18.213 694.777 17.9006 694.777 17.2309V17.1864C694.777 16.7176 695.201 16.3607 696.027 16.3607C696.741 16.3607 697.656 16.6508 698.616 17.1195C698.839 17.2309 698.995 17.2755 699.241 17.2755C700 17.2755 700.603 16.6953 700.603 15.9365C700.603 15.3563 700.29 14.9099 699.799 14.6644C698.638 14.0842 697.344 13.7495 696.094 13.7495C693.684 13.7495 691.72 15.1108 691.72 17.5437V17.5882C691.72 19.9093 693.617 20.6904 695.291 21.1815C696.607 21.583 697.768 21.8285 697.768 22.5651V22.6096C697.768 23.1456 697.322 23.5025 696.34 23.5025C695.38 23.5025 694.242 23.1456 693.103 22.4313C692.925 22.3195 692.679 22.2527 692.434 22.2527C691.675 22.2527 691.095 22.8329 691.095 23.5917C691.095 24.1273 691.385 24.5292 691.742 24.7524C693.193 25.6899 694.777 26.1137 696.251 26.1137Z" fill="#69727A"/>
<path fill-rule="evenodd" clip-rule="evenodd" d="M705.825 26.1137C708.414 26.1137 710.4 24.9084 710.4 22.2527V22.2081C710.4 20.0208 708.458 19.2174 706.784 18.6595C705.49 18.213 704.352 17.9006 704.352 17.2309V17.1864C704.352 16.7176 704.775 16.3607 705.602 16.3607C706.315 16.3607 707.231 16.6508 708.19 17.1195C708.414 17.2309 708.57 17.2755 708.815 17.2755C709.574 17.2755 710.177 16.6953 710.177 15.9365C710.177 15.3563 709.864 14.9099 709.373 14.6644C708.213 14.0842 706.918 13.7495 705.668 13.7495C703.258 13.7495 701.294 15.1108 701.294 17.5437V17.5882C701.294 19.9093 703.191 20.6904 704.865 21.1815C706.182 21.583 707.342 21.8285 707.342 22.5651V22.6096C707.342 23.1456 706.896 23.5025 705.914 23.5025C704.954 23.5025 703.816 23.1456 702.678 22.4313C702.499 22.3195 702.253 22.2527 702.008 22.2527C701.249 22.2527 700.669 22.8329 700.669 23.5917C700.669 24.1273 700.959 24.5292 701.316 24.7524C702.767 25.6899 704.352 26.1137 705.825 26.1137Z" fill="#69727A"/>
<path fill-rule="evenodd" clip-rule="evenodd" d="M686.908 32.8999V32.9235C686.908 33.4922 687.347 33.9307 687.939 33.9307C688.531 33.9307 688.97 33.4922 688.97 32.9235V32.8999C688.97 32.3312 688.531 31.8931 687.939 31.8931C687.347 31.8931 686.908 32.3312 686.908 32.8999Z" fill="#69727A"/>
<path fill-rule="evenodd" clip-rule="evenodd" d="M691.884 34.0019C692.927 34.0019 693.602 33.6704 694.135 33.1846C694.289 33.0421 694.396 32.8527 694.396 32.6159C694.396 32.1893 694.064 31.8459 693.638 31.8459C693.425 31.8459 693.247 31.9406 693.152 32.0117C692.809 32.284 692.441 32.4498 691.967 32.4498C690.984 32.4498 690.356 31.6679 690.356 30.6967V30.673C690.356 29.7369 690.996 28.9433 691.896 28.9433C692.37 28.9433 692.702 29.0972 693.022 29.3458C693.129 29.4291 693.306 29.5238 693.543 29.5238C693.993 29.5238 694.361 29.1682 694.361 28.7179C694.361 28.4101 694.195 28.197 694.076 28.1019C693.543 27.652 692.868 27.3911 691.908 27.3911C689.965 27.3911 688.579 28.8841 688.579 30.6967V30.7204C688.579 32.533 689.977 34.0019 691.884 34.0019Z" fill="#69727A"/>
<path fill-rule="evenodd" clip-rule="evenodd" d="M697.274 34.0019C699.253 34.0019 700.722 32.5212 700.722 30.6967V30.673C700.722 28.8485 699.264 27.3911 697.298 27.3911C695.32 27.3911 693.851 28.8722 693.851 30.6967V30.7204C693.851 32.5448 695.308 34.0019 697.274 34.0019ZM697.298 32.4498C696.303 32.4498 695.627 31.6324 695.627 30.6967V30.673C695.627 29.7369 696.244 28.9433 697.274 28.9433C698.27 28.9433 698.945 29.7606 698.945 30.6967V30.7204C698.945 31.6561 698.329 32.4498 697.298 32.4498Z" fill="#69727A"/>
<path fill-rule="evenodd" clip-rule="evenodd" d="M700.71 33.0303C700.71 33.5279 701.113 33.9309 701.611 33.9309C702.108 33.9309 702.511 33.5279 702.511 33.0303V30.3174C702.511 29.4646 702.926 29.0261 703.601 29.0261C704.276 29.0261 704.655 29.4646 704.655 30.3174V33.0303C704.655 33.5279 705.058 33.9309 705.555 33.9309C706.053 33.9309 706.456 33.5279 706.456 33.0303V30.3174C706.456 29.4646 706.87 29.0261 707.546 29.0261C708.221 29.0261 708.6 29.4646 708.6 30.3174V33.0303C708.6 33.5279 709.003 33.9309 709.501 33.9309C709.998 33.9309 710.401 33.5279 710.401 33.0303V29.7251C710.401 28.197 709.596 27.3911 708.256 27.3911C707.392 27.3911 706.728 27.7467 706.172 28.3982C705.84 27.7585 705.212 27.3911 704.383 27.3911C703.471 27.3911 702.926 27.8769 702.511 28.4101V28.339C702.511 27.8414 702.108 27.4385 701.611 27.4385C701.113 27.4385 700.71 27.8414 700.71 28.339V33.0303Z" fill="#69727A"/>
<path fill-rule="evenodd" clip-rule="evenodd" d="M525.723 33.2407C531.745 33.2407 536.627 32.8991 536.627 32.4777C536.627 32.0563 531.745 31.7144 525.723 31.7144C519.701 31.7144 514.819 32.0563 514.819 32.4777C514.819 32.8991 519.701 33.2407 525.723 33.2407Z" fill="#69727A"/>
<path d="M810.594 2.08789C810.724 2.14865 810.844 2.23132 810.946 2.33232L816.648 8.03837C816.761 8.14956 816.85 8.28183 816.911 8.4276C816.973 8.57337 817.004 8.72977 817.005 8.88787V35.1702C817.005 35.2489 816.981 35.3259 816.937 35.3913C816.894 35.4568 816.831 35.5079 816.759 35.5383C816.686 35.5686 816.606 35.5769 816.529 35.562C816.451 35.5471 816.38 35.5098 816.324 35.4547L810.942 30.0812C810.718 29.8553 810.593 29.5498 810.594 29.2317V2.08789Z" fill="#69727A"/>
<path d="M826.274 2.34835C826.373 2.24104 826.491 2.15278 826.622 2.08789V29.2277C826.623 29.3862 826.592 29.5432 826.531 29.6897C826.471 29.8361 826.382 29.9692 826.27 30.0812L820.892 35.4547C820.836 35.5094 820.766 35.5466 820.689 35.5617C820.613 35.5769 820.533 35.5693 820.461 35.5399C820.388 35.5105 820.326 35.4606 820.282 35.3964C820.237 35.3321 820.213 35.2563 820.211 35.1782V8.87985C820.214 8.56727 820.339 8.26831 820.56 8.04638L826.266 2.34835H826.274Z" fill="#69727A"/>
<path d="M836.64 23.2171L836.239 22.8164V17.2065H830.793C830.688 17.207 830.588 17.2487 830.513 17.3227L826.622 21.2136L839.088 33.6836C839.314 33.9051 839.617 34.029 839.934 34.0282H846.481C846.56 34.0278 846.637 34.0043 846.702 33.9605C846.768 33.9167 846.819 33.8546 846.849 33.7819C846.879 33.7092 846.888 33.6292 846.873 33.5518C846.858 33.4745 846.821 33.4032 846.766 33.347L836.64 23.2171Z" fill="#69727A"/>
<path d="M827.119 1.97998C826.961 1.98274 826.805 2.01673 826.66 2.07999C826.515 2.14325 826.384 2.23454 826.274 2.34863L820.56 8.03865C820.461 8.13938 820.38 8.25584 820.319 8.38326H836.239V22.8087L836.64 23.2094L842.294 17.5754C842.52 17.3502 842.646 17.0447 842.647 16.7259V8.89215C842.646 8.57344 842.52 8.26788 842.294 8.04266L836.588 2.34863C836.363 2.12312 836.057 1.99629 835.738 1.99601L827.119 1.97998Z" fill="#69727A"/>
<path d="M810.942 2.34864C810.832 2.23408 810.7 2.14251 810.555 2.07923C810.409 2.01595 810.252 1.98222 810.093 1.97999H795.131C795.051 1.97952 794.973 2.00277 794.907 2.04677C794.84 2.09077 794.789 2.15352 794.758 2.22703C794.728 2.30054 794.72 2.38147 794.735 2.4595C794.751 2.53754 794.79 2.60915 794.846 2.66519L800.22 8.03866C800.445 8.26416 800.75 8.391 801.069 8.39128H816.204C816.416 8.39128 816.62 8.47571 816.77 8.62601C816.921 8.7763 817.005 8.98014 817.005 9.19269V8.89216C817.005 8.57345 816.878 8.26789 816.652 8.04266L810.942 2.34864Z" fill="#555E66"/>
<path d="M826.266 2.34863C826.376 2.23359 826.509 2.14175 826.655 2.07845C826.802 2.01516 826.959 1.98168 827.119 1.97998H835.738C836.057 1.98026 836.363 2.1071 836.588 2.3326L842.294 8.03865C842.406 8.15065 842.495 8.28371 842.555 8.43019C842.616 8.57667 842.647 8.73367 842.646 8.89215V9.19268C842.646 8.98014 842.562 8.77629 842.412 8.626C842.261 8.47571 842.058 8.39127 841.845 8.39127H821.012C820.8 8.39127 820.596 8.47571 820.446 8.626C820.295 8.77629 820.211 8.98014 820.211 9.19268V8.89215C820.211 8.57344 820.338 8.26788 820.564 8.04266L826.266 2.34863Z" fill="#555E66"/>
<path d="M842.65 16.4058C842.65 16.6183 842.566 16.8222 842.415 16.9724C842.265 17.1227 842.061 17.2072 841.849 17.2072H831.11C831.07 17.2069 831.031 17.2187 830.997 17.2409C830.964 17.2632 830.938 17.2949 830.923 17.332C830.908 17.3691 830.904 17.4098 830.913 17.449C830.921 17.4882 830.941 17.524 830.97 17.5518L836.64 23.2178L842.297 17.5758C842.523 17.3506 842.65 17.045 842.65 16.7263V16.4058Z" fill="#555E66"/>
<path d="M992.35 23.4379C992.35 20.7291 990.791 19.7193 987.008 18.7657C984.736 18.2047 984.127 17.7559 984.127 16.9585C984.127 16.1611 984.84 15.6321 986.323 15.6321C987.961 15.6862 989.564 16.1225 991.003 16.9064L991.48 14.0093C989.856 13.3263 988.109 12.9826 986.347 12.9995C982.937 12.9995 980.926 14.7546 980.926 17.1989C980.926 19.8275 982.408 20.8373 985.979 21.7108C988.463 22.2959 989.152 22.6966 989.152 23.7584C989.152 24.7121 988.198 25.2972 986.531 25.2972C984.606 25.2428 982.732 24.6651 981.11 23.6262L980.661 26.5474C982.448 27.426 984.408 27.8968 986.399 27.9258C990.262 27.9258 992.35 26.2548 992.35 23.4379ZM978.89 27.6253V13.1998H975.384V22.9971C974.246 24.1111 973.02 24.8484 971.777 24.8484C970.351 24.8484 969.774 23.9788 969.774 22.7086V13.1998H966.268V23.6182C966.268 26.2869 967.75 27.9017 970.579 27.9017C972.563 27.9017 974.186 26.8759 975.584 25.6057L976.085 27.6092L978.89 27.6253ZM964.192 27.6253V13.1998H960.726V27.6253H964.192ZM962.461 6.89274C962.992 6.89274 963.502 7.10383 963.878 7.47956C964.254 7.8553 964.465 8.3649 964.465 8.89627C964.465 9.42764 964.254 9.93724 963.878 10.313C963.502 10.6887 962.992 10.8998 962.461 10.8998C961.93 10.8998 961.42 10.6887 961.044 10.313C960.669 9.93724 960.458 9.42764 960.458 8.89627C960.458 8.3649 960.669 7.8553 961.044 7.47956C961.42 7.10383 961.93 6.89274 962.461 6.89274ZM955.188 22.8128C954.158 24.055 953.049 24.8484 951.618 24.8484C949.875 24.8484 948.577 23.502 948.577 20.673C948.577 17.4994 950.087 15.9647 952.147 15.9647C953.196 15.9329 954.239 16.1498 955.188 16.5978V22.8128ZM958.654 27.6212V6.1875L955.188 6.78856V13.7408C954.056 13.3631 952.868 13.1762 951.674 13.1878C948.18 13.1878 945.086 15.568 945.086 20.8814C945.086 25.6898 947.627 27.9178 950.772 27.9178C952.864 27.9178 954.319 26.8599 955.401 25.6418L955.705 27.6253L958.654 27.6212ZM940.19 23.6863C939.197 24.6613 937.878 25.2325 936.487 25.2891C935.285 25.2891 934.528 24.628 934.528 23.5942C934.528 22.2197 935.614 20.9775 940.19 20.4727V23.6863ZM943.628 27.6253V17.816C943.628 14.43 941.777 13.0556 937.966 13.0556C935.952 13.0508 933.956 13.4458 932.096 14.2176L932.52 16.9705C934.104 16.2654 935.812 15.8787 937.545 15.8325C939.208 15.8325 940.19 16.4135 940.19 17.9723V18.425C934.051 19.0061 931.09 20.4847 931.09 23.9508C931.09 26.4352 932.809 27.9178 935.373 27.9178C936.312 27.9169 937.241 27.7266 938.104 27.3582C938.968 26.9898 939.748 26.451 940.398 25.774L940.719 27.6253H943.628ZM930.521 27.1244L924.995 19.5791C927.508 18.7777 929.146 17.0266 929.146 14.2216C929.146 10.5191 926.474 8.41142 922.058 8.41142H915.979V27.6453H919.586V20.2122H921.329L926.726 27.8256L930.521 27.1244ZM925.548 14.402C925.548 16.4055 924.041 17.5074 921.581 17.5074H919.545V11.3967H921.793C924.254 11.3967 925.548 12.4746 925.548 14.402ZM914.168 27.6253L913.743 24.7442C913.334 24.8231 912.918 24.858 912.501 24.8484C911.071 24.8484 910.518 24.2152 910.518 23.0532V16.0048H914.172L913.571 13.1998H910.518V8.19103L907.104 8.79609V13.2039H904.759V16.0088H907.108V23.6222C907.108 26.8479 909.015 27.8537 911.868 27.8537C912.641 27.871 913.413 27.7943 914.168 27.6253ZM904.022 23.4379C904.022 20.7291 902.463 19.7193 898.681 18.7657C896.409 18.2047 895.8 17.7559 895.8 16.9585C895.8 16.1611 896.513 15.6321 897.996 15.6321C899.634 15.6862 901.236 16.1225 902.676 16.9064L903.157 14.0093C901.532 13.3263 899.786 12.9826 898.024 12.9995C894.614 12.9995 892.602 14.7546 892.602 17.1989C892.602 19.8275 894.085 20.8373 897.655 21.7108C900.139 22.2959 900.829 22.6966 900.829 23.7584C900.829 24.7121 899.875 25.2972 898.208 25.2972C896.298 25.2417 894.44 24.6608 892.838 23.6182L892.338 26.5474C894.129 27.426 896.093 27.8967 898.088 27.9258C901.955 27.9258 904.022 26.2548 904.022 23.4379ZM890.735 27.6253V13.1998H887.229V22.9971C886.091 24.1111 884.864 24.8484 883.622 24.8484C882.196 24.8484 881.619 23.9788 881.619 22.7086V13.1998H878.113V23.6182C878.113 26.2869 879.595 27.9017 882.424 27.9017C884.408 27.9017 886.03 26.8759 887.429 25.6057L887.93 27.6092L890.735 27.6253ZM876.506 16.4055L875.704 12.9995C873.5 13.4002 872.174 14.5622 871.168 16.2051L870.495 13.2039H867.895V27.6293H871.301V19.4108C871.877 18.5415 872.647 17.8177 873.55 17.2962C874.453 16.7747 875.465 16.4698 876.506 16.4055Z" fill="#69727A"/>
<path d="M870.095 11.5968L869.294 8.39111H852.268V11.5968H858.679V27.625H862.285V11.5968H870.095Z" fill="#69727A"/>
<path d="M302.836 18.7751C302.836 28.2117 295.193 35.8549 285.756 35.8549C276.319 35.8549 268.676 28.2117 268.676 18.7751C268.676 9.33852 276.319 1.69531 285.756 1.69531C295.193 1.69531 302.836 9.33852 302.836 18.7751Z" fill="#69727A"/>
<path d="M288.034 18.7752H283.194V13.6513H288.034C289.443 13.6513 290.596 14.8042 290.596 16.2133C290.596 17.6224 289.443 18.7752 288.034 18.7752ZM288.034 10.2354H279.778V27.3151H283.194V22.1912H288.034C291.336 22.1912 294.011 19.5154 294.011 16.2133C294.011 12.9112 291.336 10.2354 288.034 10.2354Z" fill="white"/>
<path d="M320.784 16.6825C320.784 15.7431 320.058 15.1738 319.119 15.1738H316.6V18.177H319.119C320.058 18.177 320.784 17.6077 320.784 16.6825ZM314.223 24.4681V13.0815H319.46C321.894 13.0815 323.218 14.7184 323.218 16.6825C323.218 18.6325 321.88 20.2693 319.46 20.2693H316.614V24.4681H314.223Z" fill="#69727A"/>
<path d="M324.655 24.4684V16.1705H326.79V17.2664C327.373 16.569 328.37 15.9712 329.38 15.9712V18.0492C329.224 18.0208 329.039 18.0065 328.797 18.0065C328.085 18.0065 327.146 18.4051 326.804 18.9317V24.4826H324.655V24.4684Z" fill="#69727A"/>
<path d="M336.54 20.2127C336.54 18.9602 335.8 17.8642 334.462 17.8642C333.138 17.8642 332.398 18.9602 332.398 20.2127C332.398 21.4937 333.138 22.5754 334.462 22.5754C335.8 22.5754 336.54 21.4794 336.54 20.2127ZM330.178 20.2127C330.178 17.9211 331.786 15.9712 334.448 15.9712C337.138 15.9712 338.746 17.9211 338.746 20.2127C338.746 22.5042 337.138 24.4684 334.448 24.4684C331.786 24.4684 330.178 22.5042 330.178 20.2127Z" fill="#69727A"/>
<path d="M345.919 21.6499V18.789C345.564 18.2482 344.795 17.8639 344.098 17.8639C342.874 17.8639 342.034 18.8175 342.034 20.2124C342.034 21.6214 342.874 22.5751 344.098 22.5751C344.795 22.5751 345.564 22.1908 345.919 21.6499ZM345.919 24.4681V23.2298C345.279 24.0411 344.411 24.4681 343.414 24.4681C341.379 24.4681 339.828 22.9309 339.828 20.2124C339.828 17.5792 341.351 15.9709 343.414 15.9709C344.368 15.9709 345.279 16.3694 345.919 17.2092V13.0815H348.069V24.4681H345.919Z" fill="#69727A"/>
<path d="M355.641 24.4683V23.2443C355.086 23.8421 354.118 24.4683 352.794 24.4683C351.015 24.4683 350.175 23.5005 350.175 21.9206V16.1704H352.31V21.0809C352.31 22.2053 352.894 22.5753 353.805 22.5753C354.63 22.5753 355.285 22.1199 355.655 21.6502V16.1704H357.79V24.4683H355.641Z" fill="#69727A"/>
<path d="M359.37 20.2127C359.37 17.7361 361.177 15.9712 363.668 15.9712C365.333 15.9712 366.33 16.6971 366.871 17.4372L365.476 18.7467C365.091 18.1773 364.508 17.8784 363.768 17.8784C362.472 17.8784 361.576 18.8178 361.576 20.2269C361.576 21.636 362.487 22.5896 363.768 22.5896C364.508 22.5896 365.091 22.248 365.476 21.7072L366.871 23.0166C366.33 23.7567 365.333 24.4969 363.668 24.4969C361.177 24.4684 359.37 22.7035 359.37 20.2127Z" fill="#69727A"/>
<path d="M368.707 22.2339V18.0209H367.369V16.1563H368.707V13.9502H370.842V16.1706H372.478V18.0351H370.842V21.6788C370.842 22.2054 371.112 22.5897 371.582 22.5897C371.895 22.5897 372.208 22.4759 372.322 22.3335L372.777 23.9561C372.464 24.2408 371.895 24.4827 370.998 24.4827C369.489 24.4685 368.707 23.6999 368.707 22.2339Z" fill="#69727A"/>
<path d="M386.114 24.4681V19.5576H380.833V24.4681H378.457V13.0815H380.833V17.4796H386.114V13.0815H388.519V24.4681H386.114Z" fill="#69727A"/>
<path d="M396.134 24.4683V23.2443C395.579 23.8421 394.612 24.4683 393.288 24.4683C391.509 24.4683 390.669 23.5005 390.669 21.9206V16.1704H392.804V21.0809C392.804 22.2053 393.387 22.5753 394.298 22.5753C395.124 22.5753 395.779 22.1199 396.149 21.6502V16.1704H398.284V24.4683H396.134Z" fill="#69727A"/>
<path d="M405.841 24.4684V19.3729C405.841 18.2485 405.258 17.8642 404.347 17.8642C403.507 17.8642 402.866 18.3339 402.496 18.8036V24.4684H400.361V16.1705H402.496V17.2095C403.023 16.6117 404.019 15.9712 405.329 15.9712C407.122 15.9712 407.976 16.9817 407.976 18.5474V24.4684H405.841Z" fill="#69727A"/>
<path d="M410.538 22.2339V18.0209H409.2V16.1563H410.538V13.9502H412.673V16.1706H414.31V18.0351H412.673V21.6788C412.673 22.2054 412.944 22.5897 413.413 22.5897C413.726 22.5897 414.039 22.4759 414.153 22.3335L414.609 23.9561C414.296 24.2408 413.726 24.4827 412.83 24.4827C411.321 24.4685 410.538 23.6999 410.538 22.2339Z" fill="#69727A"/>
<path d="M40.0134 12.2626H34.9998C35.136 11.475 35.6207 11.0357 36.6053 10.5359L37.5293 10.0663C39.1803 9.21826 40.0587 8.2639 40.0587 6.7037C40.0587 5.7192 39.6801 4.94667 38.9228 4.38625C38.1806 3.82583 37.2718 3.55322 36.2267 3.55322C35.3935 3.55322 34.6363 3.76513 33.9394 4.20442C33.2579 4.62864 32.7428 5.17385 32.4249 5.85541L33.8789 7.30975C34.4394 6.17363 35.2573 5.61321 36.3328 5.61321C37.2415 5.61321 37.802 6.08285 37.802 6.73405C37.802 7.2794 37.5293 7.73376 36.4843 8.2639L35.8935 8.55172C34.6059 9.20292 33.7123 9.94517 33.1972 10.7935C32.6823 11.6265 32.4249 12.7019 32.4249 13.9895V14.3378H40.0134V12.2626ZM39.3431 16.7344H31.0412L26.8901 23.9241H35.1922L39.3431 31.1138L43.4941 23.9241L39.3431 16.7344Z" fill="#69727A"/>
<path d="M27.6056 28.7177C22.3197 28.7177 18.0194 24.4173 18.0194 19.1315C18.0194 13.8456 22.3197 9.54518 27.6056 9.54518L30.8875 2.6773C29.8067 2.463 28.7075 2.35521 27.6056 2.35547C18.3405 2.35547 10.8296 9.86635 10.8296 19.1315C10.8296 28.3966 18.3405 35.9074 27.6056 35.9074C31.2996 35.9074 34.714 34.7125 37.4854 32.6895L33.8512 26.3948C32.1721 27.8407 29.99 28.7177 27.6056 28.7177Z" fill="#69727A"/>
<path d="M61.0889 2.4V7.404H56.4089V2.4H53.9249V15H56.4089V9.78H61.0889V15H63.5549V2.4H61.0889ZM66.9396 4.92C67.7316 4.92 68.3796 4.272 68.3796 3.498C68.3796 2.724 67.7316 2.058 66.9396 2.058C66.1656 2.058 65.5176 2.724 65.5176 3.498C65.5176 4.272 66.1656 4.92 66.9396 4.92ZM65.7876 15H68.1096V6H65.7876V15ZM77.1289 6V7.116C76.4989 6.27 75.5269 5.748 74.2489 5.748C71.6929 5.748 69.7669 7.836 69.7669 10.356C69.7669 12.894 71.6929 14.964 74.2489 14.964C75.5269 14.964 76.4989 14.442 77.1289 13.596V14.568C77.1289 15.99 76.2289 16.782 74.7709 16.782C73.3849 16.782 72.7909 16.224 72.4129 15.522L70.4329 16.656C71.2249 18.114 72.7729 18.852 74.6989 18.852C77.0749 18.852 79.3969 17.52 79.3969 14.568V6H77.1289ZM74.6089 12.822C73.1509 12.822 72.0889 11.796 72.0889 10.356C72.0889 8.934 73.1509 7.908 74.6089 7.908C76.0669 7.908 77.1289 8.934 77.1289 10.356C77.1289 11.796 76.0669 12.822 74.6089 12.822ZM86.5064 5.748C85.3004 5.748 84.3644 6.198 83.8244 7.008V2.4H81.5024V15H83.8244V10.14C83.8244 8.574 84.6704 7.908 85.8044 7.908C86.8484 7.908 87.5864 8.538 87.5864 9.762V15H89.9084V9.474C89.9084 7.08 88.4144 5.748 86.5064 5.748ZM101.197 2.4H96.4991V15H98.9831V10.86H101.197C103.627 10.86 105.499 8.988 105.499 6.63C105.499 4.272 103.627 2.4 101.197 2.4ZM101.197 8.538H98.9831V4.722H101.197C102.259 4.722 103.033 5.532 103.033 6.63C103.033 7.71 102.259 8.538 101.197 8.538ZM108.373 11.454H115.159C115.213 11.148 115.249 10.842 115.249 10.5C115.249 7.854 113.359 5.748 110.695 5.748C107.869 5.748 105.943 7.818 105.943 10.5C105.943 13.182 107.851 15.252 110.875 15.252C112.603 15.252 113.953 14.55 114.799 13.326L112.927 12.246C112.531 12.768 111.811 13.146 110.911 13.146C109.687 13.146 108.697 12.642 108.373 11.454ZM108.337 9.654C108.607 8.502 109.453 7.836 110.695 7.836C111.667 7.836 112.639 8.358 112.927 9.654H108.337ZM119.192 7.548V6H116.87V15H119.192V10.698C119.192 8.808 120.722 8.268 121.928 8.412V5.82C120.794 5.82 119.66 6.324 119.192 7.548ZM128.128 4.38V2.148C125.266 1.968 123.898 3.426 123.898 5.91V6H122.602V8.232H123.898V15H126.22V8.232H128.128V6H126.22V5.91C126.22 4.686 126.922 4.29 128.128 4.38ZM133.142 15.252C135.788 15.252 137.912 13.182 137.912 10.5C137.912 7.818 135.788 5.748 133.142 5.748C130.496 5.748 128.39 7.818 128.39 10.5C128.39 13.182 130.496 15.252 133.142 15.252ZM133.142 12.984C131.774 12.984 130.712 11.958 130.712 10.5C130.712 9.042 131.774 8.016 133.142 8.016C134.528 8.016 135.59 9.042 135.59 10.5C135.59 11.958 134.528 12.984 133.142 12.984ZM141.867 7.548V6H139.545V15H141.867V10.698C141.867 8.808 143.397 8.268 144.603 8.412V5.82C143.469 5.82 142.335 6.324 141.867 7.548ZM155.915 5.748C154.691 5.748 153.791 6.234 153.233 7.044C152.729 6.216 151.901 5.748 150.785 5.748C149.633 5.748 148.787 6.198 148.283 6.954V6H145.961V15H148.283V9.942C148.283 8.592 148.985 7.908 149.975 7.908C150.947 7.908 151.487 8.556 151.487 9.618V15H153.809V9.942C153.809 8.592 154.457 7.908 155.483 7.908C156.455 7.908 156.995 8.556 156.995 9.618V15H159.317V9.456C159.317 7.206 157.967 5.748 155.915 5.748ZM163.252 11.454H170.038C170.092 11.148 170.128 10.842 170.128 10.5C170.128 7.854 168.238 5.748 165.574 5.748C162.748 5.748 160.822 7.818 160.822 10.5C160.822 13.182 162.73 15.252 165.754 15.252C167.482 15.252 168.832 14.55 169.678 13.326L167.806 12.246C167.41 12.768 166.69 13.146 165.79 13.146C164.566 13.146 163.576 12.642 163.252 11.454ZM163.216 9.654C163.486 8.502 164.332 7.836 165.574 7.836C166.546 7.836 167.518 8.358 167.806 9.654H163.216ZM174.071 7.548V6H171.749V15H174.071V10.698C174.071 8.808 175.601 8.268 176.807 8.412V5.82C175.673 5.82 174.539 6.324 174.071 7.548Z" fill="#69727A"/>
<path d="M57.6989 34.9771H60.5249L62.8829 26.6611L65.2589 34.9771H68.0849L71.6129 22.377H69.0029L66.5909 31.7191L63.9449 22.377H61.8209L59.1929 31.7191L56.7809 22.377H54.1709L57.6989 34.9771ZM73.7457 24.8971C74.5377 24.8971 75.1857 24.2491 75.1857 23.475C75.1857 22.7011 74.5377 22.0351 73.7457 22.0351C72.9717 22.0351 72.3237 22.7011 72.3237 23.475C72.3237 24.2491 72.9717 24.8971 73.7457 24.8971ZM72.5937 34.9771H74.9157V25.9771H72.5937V34.9771ZM82.045 25.7251C80.839 25.7251 79.903 26.1751 79.363 26.9851V25.9771H77.041V34.9771H79.363V30.1171C79.363 28.5511 80.209 27.8851 81.343 27.8851C82.387 27.8851 83.125 28.5151 83.125 29.7391V34.9771H85.447V29.4511C85.447 27.0571 83.953 25.7251 82.045 25.7251ZM92.5777 28.2091V25.9771H90.5437V23.457L88.2217 24.1591V25.9771H86.6557V28.2091H88.2217V31.9531C88.2217 34.3831 89.3197 35.3371 92.5777 34.9771V32.8711C91.2457 32.9431 90.5437 32.9251 90.5437 31.9531V28.2091H92.5777ZM95.8956 31.4311H102.682C102.736 31.1251 102.772 30.8191 102.772 30.4771C102.772 27.8311 100.882 25.7251 98.2176 25.7251C95.3916 25.7251 93.4656 27.7951 93.4656 30.4771C93.4656 33.1591 95.3736 35.2291 98.3976 35.2291C100.126 35.2291 101.476 34.5271 102.322 33.3031L100.45 32.2231C100.054 32.7451 99.3336 33.1231 98.4336 33.1231C97.2096 33.1231 96.2196 32.6191 95.8956 31.4311ZM95.8596 29.6311C96.1296 28.4791 96.9756 27.8131 98.2176 27.8131C99.1896 27.8131 100.162 28.3351 100.45 29.6311H95.8596ZM106.715 27.5251V25.9771H104.393V34.9771H106.715V30.6751C106.715 28.7851 108.245 28.2451 109.451 28.3891V25.797C108.317 25.797 107.183 26.3011 106.715 27.5251ZM114.733 34.9771H123.157V32.5831H118.423L120.889 30.1171C122.077 28.9291 122.959 27.6151 122.959 26.0851C122.959 23.5651 120.961 22.125 118.801 22.125C117.091 22.125 115.453 22.9891 114.643 24.789L116.731 26.0131C117.145 25.1131 117.865 24.5371 118.837 24.5371C119.791 24.5371 120.475 25.1671 120.475 26.1751C120.475 27.0211 119.845 27.8491 119.035 28.6951L114.733 33.1231V34.9771ZM129.303 35.2291C132.525 35.2291 134.343 32.5651 134.343 28.6771C134.343 24.789 132.525 22.125 129.303 22.125C126.099 22.125 124.263 24.789 124.263 28.6771C124.263 32.5651 126.099 35.2291 129.303 35.2291ZM129.303 32.7991C127.611 32.7991 126.747 31.3411 126.747 28.6771C126.747 26.0131 127.611 24.5371 129.303 24.5371C130.995 24.5371 131.877 26.0131 131.877 28.6771C131.877 31.3411 130.995 32.7991 129.303 32.7991ZM135.141 34.9771H143.565V32.5831H138.831L141.297 30.1171C142.485 28.9291 143.367 27.6151 143.367 26.0851C143.367 23.5651 141.369 22.125 139.209 22.125C137.499 22.125 135.861 22.9891 135.051 24.789L137.139 26.0131C137.553 25.1131 138.273 24.5371 139.245 24.5371C140.199 24.5371 140.883 25.1671 140.883 26.1751C140.883 27.0211 140.253 27.8491 139.443 28.6951L135.141 33.1231V34.9771ZM149.712 35.2291C152.934 35.2291 154.752 32.5651 154.752 28.6771C154.752 24.789 152.934 22.125 149.712 22.125C146.508 22.125 144.672 24.789 144.672 28.6771C144.672 32.5651 146.508 35.2291 149.712 35.2291ZM149.712 32.7991C148.02 32.7991 147.156 31.3411 147.156 28.6771C147.156 26.0131 148.02 24.5371 149.712 24.5371C151.404 24.5371 152.286 26.0131 152.286 28.6771C152.286 31.3411 151.404 32.7991 149.712 32.7991Z" fill="#69727A"/>
</svg>
